<?xml version="1.0" encoding="UTF-8" standalone="no"?>
<!-- Created with Inkscape (http://www.inkscape.org/) -->

<svg
   xmlns:dc="http://purl.org/dc/elements/1.1/"
   xmlns:cc="http://creativecommons.org/ns#"
   xmlns:rdf="http://www.w3.org/1999/02/22-rdf-syntax-ns#"
   xmlns:svg="http://www.w3.org/2000/svg"
   xmlns="http://www.w3.org/2000/svg"
   xmlns:sodipodi="http://sodipodi.sourceforge.net/DTD/sodipodi-0.dtd"
   xmlns:inkscape="http://www.inkscape.org/namespaces/inkscape"
   width="90"
   height="88"
   viewBox="0 0 23.812499 23.283334"
   version="1.1"
   id="svg8"
   inkscape:version="0.92.5 (2060ec1f9f, 2020-04-08)"
   sodipodi:docname="iconmaker.svg"
   inkscape:export-filename="/home/cjrodriguez/Projects/newsletter/images/icons/cairelab.png"
   inkscape:export-xdpi="95.07"
   inkscape:export-ydpi="95.07">
  <defs
     id="defs2" />
  <sodipodi:namedview
     id="base"
     pagecolor="#ffffff"
     bordercolor="#666666"
     borderopacity="1.0"
     inkscape:pageopacity="0.0"
     inkscape:pageshadow="2"
     inkscape:zoom="4.8636364"
     inkscape:cx="28.046254"
     inkscape:cy="41.167721"
     inkscape:document-units="mm"
     inkscape:current-layer="layer2"
     showgrid="false"
     units="px"
     inkscape:pagecheckerboard="false"
     inkscape:window-width="1848"
     inkscape:window-height="1016"
     inkscape:window-x="72"
     inkscape:window-y="27"
     inkscape:window-maximized="1" />
  <metadata
     id="metadata5">
    <rdf:RDF>
      <cc:Work
         rdf:about="">
        <dc:format>image/svg+xml</dc:format>
        <dc:type
           rdf:resource="http://purl.org/dc/dcmitype/StillImage" />
        <dc:title></dc:title>
      </cc:Work>
    </rdf:RDF>
  </metadata>
  <g
     inkscape:label="cairelab"
     inkscape:groupmode="layer"
     id="layer1"
     transform="translate(0,-273.71665)"
     sodipodi:insensitive="true"
     style="display:none">
    <path
       style="opacity:1;fill:#999999;fill-opacity:1;stroke:none;stroke-width:0.81492203;stroke-miterlimit:4;stroke-dasharray:none;stroke-opacity:0.5071225"
       d="M -0.82226562,-0.20507812 V 40.951172 L 27.787109,40.828125 40.123047,1.5351562 53.265625,66.978516 62.384766,41.632812 H 90.056641 V -0.20507812 Z"
       transform="matrix(0.26458333,0,0,0.26458333,0,273.71665)"
       id="path848"
       inkscape:connector-curvature="0" />
    <path
       style="opacity:1;fill:#999999;fill-opacity:1;stroke:none;stroke-width:0.81492203;stroke-miterlimit:4;stroke-dasharray:none;stroke-opacity:0.5071225"
       d="M 90.056641,47.667969 H 65.46875 L 52.328125,85.216797 39.050781,22.992188 31.273438,48.070312 H -0.82226562 V 88.617188 H 90.056641 Z"
       transform="matrix(0.26458333,0,0,0.26458333,0,273.71665)"
       id="path844"
       inkscape:connector-curvature="0" />
  </g>
  <g
     inkscape:groupmode="layer"
     id="layer2"
     inkscape:label="lumc">
    <path
       style="fill:#999999;fill-opacity:1;stroke-width:0.02643084"
       d="m 0.05935283,17.603378 v -5.946991 l 5.94033547,0.0067 5.9403287,0.0067 0.0067,5.940335 0.0067,5.940328 H 6.0063138 0.05931605 Z M 4.2194541,21.29715 c 0.031303,-0.04882 0.058336,-0.306469 0.045443,-0.432904 -0.0017,-0.01643 -0.035729,-0.04215 -0.075727,-0.05726 C 4.0753526,20.764025 3.7679523,20.657925 3.5217885,20.576608 3.39823,20.535768 3.2826387,20.48347 3.2649299,20.460359 c -0.039914,-0.05211 -0.041525,-0.189902 -0.00693,-0.582317 0.049232,-0.558123 0.07707,-0.882239 0.1182282,-1.375956 0.022395,-0.268932 0.051875,-0.619802 0.065463,-0.779708 0.013574,-0.159907 0.037284,-0.445359 0.052667,-0.634342 0.015398,-0.188975 0.045951,-0.545796 0.067923,-0.792925 0.021944,-0.247128 0.042798,-0.538525 0.046234,-0.647552 l 0.00637,-0.19823 0.047152,0.10573 c 0.025958,0.05814 0.056923,0.129511 0.06887,0.158584 0.011876,0.02907 0.034413,0.0826 0.049853,0.118935 0.086882,0.203728 0.107624,0.254469 0.3890161,0.951512 0.1261741,0.312547 0.2460767,0.605742 0.2664563,0.65155 0.020389,0.04578 0.037043,0.09054 0.037043,0.09941 0,0.009 0.02258,0.06654 0.05015,0.128154 0.027571,0.06161 0.1241099,0.296399 0.21452,0.521718 0.090403,0.225325 0.1927224,0.472448 0.2273751,0.549164 0.034639,0.07672 0.063001,0.151216 0.063001,0.165553 0,0.01437 0.010887,0.0467 0.024178,0.07197 0.038075,0.07223 0.1079493,0.237237 0.1079493,0.255021 0,0.009 0.022453,0.06654 0.049853,0.128153 0.027458,0.06161 0.099706,0.233034 0.1606246,0.380911 0.060924,0.147884 0.1295815,0.276095 0.1525824,0.284924 0.023032,0.009 0.1700268,0.01448 0.3267279,0.01258 0.3237361,-0.0039 0.3212435,-0.0028 0.4277011,-0.235927 0.1344736,-0.294683 0.2663654,-0.576206 0.4148123,-0.885437 0.083744,-0.174439 0.1969441,-0.412319 0.2515635,-0.528612 0.054618,-0.116292 0.1513412,-0.321467 0.2149442,-0.455934 0.063597,-0.134473 0.1703266,-0.36045 0.2371576,-0.502187 0.136255,-0.288946 0.3045329,-0.643211 0.4739518,-0.997763 0.2500281,-0.523253 0.3824728,-0.813352 0.3824728,-0.837752 0,-0.01414 0.014874,-0.02074 0.033028,-0.01476 0.038486,0.01273 0.056456,0.297342 0.099904,1.579368 0.016033,0.472453 0.04038,1.138512 0.054109,1.480128 0.063073,1.565098 0.063199,1.592453 0.00862,1.745931 -0.077226,0.217105 -0.172767,0.294936 -0.4812587,0.392054 -0.1452996,0.04573 -0.2705575,0.0998 -0.2783579,0.120122 -0.013574,0.03538 0.022862,0.36243 0.048015,0.431235 0.00948,0.0258 0.2841194,0.03303 1.2519259,0.03303 1.1164816,0 1.2434186,-0.0039 1.2757926,-0.04331 0.04739,-0.0571 0.06647,-0.420183 0.0247,-0.470482 -0.01702,-0.0205 -0.128324,-0.08605 -0.247393,-0.145696 C 9.7980877,20.575041 9.7469423,20.536846 9.6509204,20.405177 9.5298647,20.239182 9.52076,20.176624 9.4414275,18.9647 9.3998497,18.329589 9.3653446,17.840743 9.3378749,17.497789 c -0.01459,-0.181717 -0.03883,-0.50581 -0.053885,-0.720214 -0.015045,-0.214406 -0.041578,-0.55933 -0.058916,-0.766497 -0.017349,-0.207169 -0.03205,-0.543179 -0.032747,-0.746698 -0.00111,-0.312169 0.00647,-0.384497 0.048125,-0.46254 0.101446,-0.190189 0.1806935,-0.243969 0.5453499,-0.370135 0.2449562,-0.08474 0.2460372,-0.08614 0.2248582,-0.289346 -0.0099,-0.0952 -0.02894,-0.184428 -0.04221,-0.198282 -0.01465,-0.01524 -0.3817397,-0.02298 -0.92752,-0.01959 -0.7967109,0.0053 -0.9089995,0.01075 -0.9514298,0.0491 -0.026481,0.02396 -0.048128,0.05969 -0.048128,0.07945 0,0.01976 -0.011593,0.05658 -0.025901,0.0818 -0.032971,0.05838 -0.2912525,0.616855 -0.2912525,0.629769 0,0.0053 -0.042501,0.102095 -0.094405,0.215077 -0.051932,0.112982 -0.1103529,0.241104 -0.129836,0.284712 -0.019468,0.04359 -0.07058,0.156603 -0.1135342,0.251091 -0.042967,0.09449 -0.1045701,0.231269 -0.1369195,0.303953 -0.032335,0.07269 -0.086077,0.191626 -0.1194158,0.264308 -0.033311,0.07269 -0.087335,0.191626 -0.1199955,0.26431 -0.032619,0.07269 -0.091902,0.20352 -0.1316741,0.290742 -0.039744,0.08722 -0.098759,0.218052 -0.1310944,0.290737 -0.032335,0.07269 -0.086091,0.191624 -0.1194299,0.264307 -0.033311,0.07269 -0.087335,0.191626 -0.1199954,0.26431 -0.032689,0.07269 -0.094518,0.209465 -0.1374852,0.303954 -0.042967,0.09449 -0.0949,0.210458 -0.1154428,0.257702 -0.020558,0.04728 -0.054165,0.124562 -0.074667,0.171803 -0.1394787,0.320903 -0.2046286,0.442716 -0.2368182,0.442716 -0.020501,0 -0.062874,-0.06752 -0.09538,-0.15198 -0.032164,-0.08359 -0.068869,-0.175761 -0.081522,-0.204829 C 5.7540169,18.248457 5.6534621,17.992733 5.5433157,17.709258 5.433175,17.425786 5.3330854,17.17007 5.3209035,17.140995 5.3087441,17.111927 5.2665117,17.004881 5.2270221,16.903119 5.187561,16.801363 5.1451164,16.694316 5.1326885,16.66524 5.1202464,16.636171 5.0441094,16.442891 4.9634605,16.23574 4.8828131,16.028589 4.7508421,15.689616 4.6701905,15.48246 4.5895432,15.275308 4.513621,15.082036 4.5014786,15.052959 4.4893193,15.023891 4.4471434,14.916832 4.407668,14.815085 4.3225529,14.595545 4.2968204,14.531092 4.2625819,14.451659 4.2484433,14.41897 4.200216,14.297037 4.1553254,14.180745 4.1104063,14.064454 4.056411,13.955989 4.0352875,13.939727 c -0.040494,-0.03119 -1.8910168,-0.02762 -1.9417481,0.0033 -0.013997,0.0087 -0.025506,0.10877 -0.025506,0.222446 0,0.201201 0.0017,0.20741 0.072687,0.234109 0.1494295,0.0564 0.4447948,0.160433 0.5023268,0.176958 0.091619,0.02631 0.2124924,0.139494 0.2637341,0.246916 0.053529,0.112177 0.056343,0.379827 0.00862,0.808614 -0.016316,0.146447 -0.041073,0.379261 -0.055085,0.517364 -0.052158,0.515377 -0.1053619,1.053312 -0.1333707,1.347971 -0.015906,0.167178 -0.045088,0.458576 -0.06484,0.647557 -0.019752,0.188983 -0.049048,0.480381 -0.065024,0.647558 -0.015962,0.167173 -0.039928,0.399101 -0.053189,0.515399 -0.01329,0.116293 -0.03136,0.298005 -0.04021,0.403802 -0.031416,0.376298 -0.1959955,0.720304 -0.4236291,0.885495 -0.067103,0.04871 -0.1995104,0.127913 -0.2942342,0.17603 l -0.1722269,0.08749 0.00918,0.222326 c 0.00664,0.161252 0.020105,0.229208 0.04882,0.247383 0.023499,0.01487 0.5426491,0.02521 1.2746782,0.02545 l 1.235033,4e-4 0.038089,-0.05947 z m 13.5089189,0.228974 c -0.614984,-0.0834 -0.702792,-0.10163 -1.094484,-0.227136 -1.034253,-0.331403 -1.693028,-0.985141 -2.019406,-2.003977 -0.163652,-0.510845 -0.210275,-0.860284 -0.211597,-1.585852 -0.0012,-0.75374 0.03509,-0.999852 0.23841,-1.609762 0.394042,-1.181971 1.32187,-2.02202 2.554421,-2.312751 0.407397,-0.09609 0.540801,-0.108189 1.193425,-0.108189 0.904106,0 1.341807,0.07478 1.89567,0.323839 l 0.151227,0.06801 0.0074,0.791208 c 0.0039,0.435162 4.02e-4,0.802375 -0.0081,0.816027 -0.0085,0.01371 -0.118356,0.03211 -0.244218,0.04095 l -0.228833,0.01615 -0.06724,-0.155886 c -0.107525,-0.249263 -0.122908,-0.278627 -0.243279,-0.464416 -0.220127,-0.339755 -0.563232,-0.575775 -0.958704,-0.659476 -0.320024,-0.06775 -0.912647,-0.03297 -1.361187,0.07982 -0.46656,0.117338 -0.98524,0.471143 -1.287763,0.878396 -0.149705,0.201527 -0.332145,0.590969 -0.413186,0.881998 -0.200208,0.718971 -0.218966,1.682592 -0.04509,2.316501 0.02137,0.07786 0.04653,0.171303 0.0559,0.207645 0.01545,0.05994 0.03717,0.115923 0.12278,0.317169 0.231213,0.543311 0.688076,1.008974 1.23608,1.259893 0.130303,0.05966 0.207155,0.08714 0.46345,0.165651 0.287141,0.08795 0.54616,0.116899 1.044019,0.116616 0.624043,-3.97e-4 0.765223,-0.027 1.480122,-0.279507 0.09449,-0.03337 0.187191,-0.07049 0.206002,-0.08246 0.03606,-0.02298 0.111174,0.02292 0.111174,0.06791 0,0.01418 0.0162,0.06329 0.03595,0.109095 0.01976,0.04578 0.06763,0.160336 0.106352,0.254503 l 0.07041,0.171222 -0.06009,0.04573 c -0.111314,0.08474 -0.517489,0.274224 -0.786933,0.367091 -0.41618,0.143445 -0.705515,0.186382 -1.321544,0.196124 -0.298008,0.0045 -0.577515,0.0033 -0.621123,-0.0023 z m -5.757522,-9.887245 c -0.0097,-0.0097 -0.01763,-2.6858144 -0.01763,-5.9469397 v -5.92931249 h 5.946936 5.94694 V 5.7095619 11.656502 h -5.929318 c -3.261124,0 -5.937245,-0.008 -5.946941,-0.01763 z m 6.709033,-2.0953865 c 0.328721,-0.079714 0.386592,-0.096625 0.535751,-0.1565689 0.518284,-0.2082935 0.961241,-0.5543329 1.239376,-0.9681971 0.123813,-0.1842322 0.230896,-0.3738576 0.253751,-0.4493276 0.0088,-0.029065 0.03585,-0.1063841 0.06008,-0.1718021 0.06324,-0.1706819 0.108063,-0.3496753 0.155563,-0.6212501 0.03544,-0.2026299 0.04158,-0.5442236 0.04176,-2.3125726 2.01e-4,-2.0098538 0.0017,-2.0774659 0.05169,-2.159283 0.06887,-0.1129374 0.132084,-0.1499175 0.397626,-0.2326078 0.402928,-0.1254713 0.370033,-0.097176 0.370033,-0.3183132 0,-0.1060732 -0.0073,-0.2116766 -0.01602,-0.2346699 -0.01437,-0.037392 -0.164546,-0.041815 -1.424434,-0.041815 -1.259893,0 -1.410086,0.0046 -1.42444,0.041815 -0.02871,0.074879 -0.01688,0.3434893 0.01702,0.3856499 0.01816,0.022632 0.175766,0.086551 0.350209,0.1421058 0.368413,0.1173204 0.491081,0.1858748 0.577424,0.3226787 0.112997,0.1790394 0.122993,0.3458327 0.122993,2.052009 0,2.3045078 -0.03211,2.6297772 -0.314104,3.1823986 -0.19978,0.3914971 -0.560306,0.6626181 -1.047084,0.7874171 -0.259506,0.066539 -0.928431,0.06675 -1.189386,3.793e-4 C 16.833647,8.6379218 16.375647,8.2389401 16.185733,7.7009431 16.048206,7.3113529 16.050849,7.3653117 16.05044,4.9414039 l -4.02e-4,-2.261497 0.07269,-0.067142 c 0.07374,-0.068112 0.143301,-0.090691 0.522012,-0.1694585 0.116291,-0.024182 0.22676,-0.048307 0.245479,-0.053534 0.02533,-0.00713 0.03211,-0.072121 0.02643,-0.2545152 l -0.0077,-0.2449284 -1.446036,-0.00683 c -1.665759,-0.00787 -1.509444,-0.036758 -1.495566,0.2765286 l 0.0078,0.1761846 0.290738,0.099692 c 0.159907,0.054798 0.307457,0.1002092 0.327895,0.1008407 0.06699,0.0023 0.21325,0.1341611 0.273654,0.2471629 l 0.05923,0.1108011 0.01551,2.2862649 0.01557,2.2862709 0.06994,0.2643029 c 0.07626,0.2881287 0.07929,0.2965494 0.18976,0.5286172 0.168957,0.3549139 0.455513,0.6759268 0.795129,0.8907397 0.189328,0.1197566 0.224142,0.1374768 0.449467,0.228765 0.22012,0.089181 0.6287,0.1829855 0.935909,0.2148817 0.351159,0.036473 1.033077,0.00931 1.281893,-0.051007 z M 3.114637,9.4668163 C 3.1069984,9.4545299 3.0929761,9.3501618 3.0833339,9.2349152 3.0644304,9.0083272 3.0758367,8.9817097 3.204616,8.9528233 3.3788704,8.9137068 3.7335958,8.8104246 3.7500108,8.7940027 c 0.01018,-0.010166 0.035092,-0.018439 0.055495,-0.018439 0.074398,0 0.2187984,-0.1409166 0.2826036,-0.2757909 0.064275,-0.1358671 0.066013,-0.1571775 0.095068,-1.1669437 0.01626,-0.5657058 0.025789,-1.7778665 0.021137,-2.6936902 C 4.1963976,3.0962005 4.1922975,2.9644398 4.1469969,2.843845 4.0861156,2.6816757 4.0052644,2.5699902 3.9146989,2.522947 3.8763262,2.5030156 3.7336211,2.4502909 3.5975287,2.4057524 3.1631301,2.263595 3.2014362,2.2972941 3.2102715,2.065095 l 0.00764,-0.2011996 1.4194198,-0.00683 1.419415,-0.00683 0.016147,0.08613 c 0.00891,0.047387 0.012442,0.1502794 0.00791,0.22869 l -0.0082,0.1425654 -0.1321547,0.035095 c -0.072687,0.0193 -0.2154108,0.05451 -0.3171701,0.078199 -0.2569632,0.059858 -0.3617666,0.1158911 -0.4179313,0.2234633 -0.045611,0.087388 -0.047096,0.2127507 -0.031077,2.6423162 0.00918,1.4028201 0.02487,2.7587178 0.034696,3.013118 l 0.017853,0.4625383 0.2907364,-0.00345 C 7.0615142,8.7413313 7.5348976,8.7172647 7.7196528,8.6470911 8.0914366,8.5058465 8.3484322,8.2484598 8.5766866,7.788753 8.6364224,7.6684337 8.6629615,7.6385195 8.6976718,7.6523452 c 0.024474,0.00977 0.1210559,0.028834 0.2146573,0.04239 0.093612,0.01356 0.1749103,0.029409 0.1806704,0.035153 0.0058,0.00574 -0.0017,0.097664 -0.017122,0.2042381 -0.015171,0.1065682 -0.039928,0.300806 -0.055028,0.4316364 -0.015115,0.1308357 -0.045838,0.3865517 -0.068305,0.5682678 -0.022453,0.1817104 -0.04704,0.380934 -0.054631,0.4427161 L 8.8842006,9.4890713 H 6.0064213 c -1.582784,0 -2.8839995,-0.010053 -2.8915991,-0.022343 z"
       id="path881"
       inkscape:connector-curvature="0" />
  </g>
</svg>
