<?xml version="1.0" encoding="UTF-8" standalone="no"?>
<!-- Created with Inkscape (http://www.inkscape.org/) -->

<svg
   xmlns:dc="http://purl.org/dc/elements/1.1/"
   xmlns:cc="http://creativecommons.org/ns#"
   xmlns:rdf="http://www.w3.org/1999/02/22-rdf-syntax-ns#"
   xmlns:svg="http://www.w3.org/2000/svg"
   xmlns="http://www.w3.org/2000/svg"
   xmlns:sodipodi="http://sodipodi.sourceforge.net/DTD/sodipodi-0.dtd"
   xmlns:inkscape="http://www.inkscape.org/namespaces/inkscape"
   width="90"
   height="88"
   viewBox="0 0 23.812499 23.283334"
   version="1.1"
   id="svg8"
   inkscape:version="0.92.5 (2060ec1f9f, 2020-04-08)"
   sodipodi:docname="iconmaker.svg"
   inkscape:export-filename="/home/cjrodriguez/Projects/newsletter/images/icons/lumc.png"
   inkscape:export-xdpi="96"
   inkscape:export-ydpi="96">
  <defs
     id="defs2">
    <clipPath
       clipPathUnits="userSpaceOnUse"
       id="clipPath926">
      <path
         inkscape:connector-curvature="0"
         id="path928"
         d="M 7.2695312,-0.10351562 V 0.19726562 A 6.9058561,6.9058561 0 0 0 7.0507812,0.1875 6.9058561,6.9058561 0 0 0 0.1484375,7.0195312 H -0.14453125 V 81.166016 H 0.14648438 A 6.9058561,6.9058561 0 0 0 7.0507812,88 a 6.9058561,6.9058561 0 0 0 0.21875,-0.0078 v 0.298828 H 82.433594 v -0.341809 a 6.9058561,6.9058561 0 0 0 0.800781,0.05078 6.9058561,6.9058561 0 0 0 6.904297,-6.90625 6.9058561,6.9058561 0 0 0 -0.144531,-1.375 V 8.4960938 A 6.9058561,6.9058561 0 0 0 90.138672,7.0917969 6.9058561,6.9058561 0 0 0 83.234375,0.1875 6.9058561,6.9058561 0 0 0 82.433594,0.2421875 v -0.34570312 z"
         style="opacity:1;fill:#000000;fill-opacity:1;stroke:none;stroke-width:0.92220473;stroke-miterlimit:4;stroke-dasharray:none;stroke-opacity:0.5071225" />
    </clipPath>
    <clipPath
       clipPathUnits="userSpaceOnUse"
       id="clipPath935">
      <path
         style="display:inline;opacity:1;fill:#000000;fill-opacity:1;stroke:none;stroke-width:0.92220473;stroke-miterlimit:4;stroke-dasharray:none;stroke-opacity:0.5071225"
         d="M 7.2695312,-0.10351562 V 0.19726562 A 6.9058561,6.9058561 0 0 0 7.0507812,0.1875 6.9058561,6.9058561 0 0 0 0.1484375,7.0195312 H -0.14453125 V 81.166016 H 0.14648438 A 6.9058561,6.9058561 0 0 0 7.0507812,88 a 6.9058561,6.9058561 0 0 0 0.21875,-0.0078 v 0.298828 H 82.433594 v -0.341809 a 6.9058561,6.9058561 0 0 0 0.800781,0.05078 6.9058561,6.9058561 0 0 0 6.904297,-6.90625 6.9058561,6.9058561 0 0 0 -0.144531,-1.375 V 8.4960938 A 6.9058561,6.9058561 0 0 0 90.138672,7.0917969 6.9058561,6.9058561 0 0 0 83.234375,0.1875 6.9058561,6.9058561 0 0 0 82.433594,0.2421875 v -0.34570312 z"
         id="path937"
         inkscape:connector-curvature="0" />
    </clipPath>
    <clipPath
       clipPathUnits="userSpaceOnUse"
       id="clipPath960">
      <path
         inkscape:connector-curvature="0"
         id="path962"
         d="M 1.9233968,-0.02738851 V 0.0521932 A 1.8271744,1.8271744 0 0 0 1.8655192,0.04960937 1.8271744,1.8271744 0 0 0 0.03927409,1.8572509 H -0.03824056 V 21.475175 h 0.07699789 a 1.8271744,1.8271744 0 0 0 1.82676187,1.808158 1.8271744,1.8271744 0 0 0 0.057878,-0.0021 v 0.07906 H 21.810555 v -0.09044 a 1.8271744,1.8271744 0 0 0 0.211873,0.01344 1.8271744,1.8271744 0 0 0 1.826762,-1.827279 1.8271744,1.8271744 0 0 0 -0.03824,-0.363802 V 2.2479248 A 1.8271744,1.8271744 0 0 0 23.84919,1.8763712 1.8271744,1.8271744 0 0 0 22.022428,0.04960937 1.8271744,1.8271744 0 0 0 21.810555,0.06407878 v -0.09146729 z"
         style="display:inline;opacity:1;fill:#000000;fill-opacity:1;stroke:none;stroke-width:0.244;stroke-miterlimit:4;stroke-dasharray:none;stroke-opacity:0.5071225" />
    </clipPath>
  </defs>
  <sodipodi:namedview
     id="base"
     pagecolor="#ffffff"
     bordercolor="#666666"
     borderopacity="1.0"
     inkscape:pageopacity="0.0"
     inkscape:pageshadow="2"
     inkscape:zoom="3.4391103"
     inkscape:cx="86.459921"
     inkscape:cy="29.260941"
     inkscape:document-units="mm"
     inkscape:current-layer="layer2"
     showgrid="false"
     units="px"
     inkscape:pagecheckerboard="false"
     inkscape:window-width="1848"
     inkscape:window-height="1016"
     inkscape:window-x="72"
     inkscape:window-y="27"
     inkscape:window-maximized="1" />
  <metadata
     id="metadata5">
    <rdf:RDF>
      <cc:Work
         rdf:about="">
        <dc:format>image/svg+xml</dc:format>
        <dc:type
           rdf:resource="http://purl.org/dc/dcmitype/StillImage" />
        <dc:title></dc:title>
      </cc:Work>
    </rdf:RDF>
  </metadata>
  <g
     inkscape:label="cairelab"
     inkscape:groupmode="layer"
     id="layer1"
     transform="translate(0,-273.71665)"
     style="display:none">
    <path
       id="path844"
       transform="matrix(0.26458333,0,0,0.26458333,0,273.71665)"
       style="opacity:1;fill:#999999;fill-opacity:1;stroke:none;stroke-width:0.81492203;stroke-miterlimit:4;stroke-dasharray:none;stroke-opacity:0.5071225"
       d="M 90.056641,47.667969 H 65.46875 L 52.328125,85.216797 39.050781,22.992188 31.273438,48.070312 H -0.82226562 V 88.617188 H 90.056641 Z M -0.82226562,-0.20507812 V 40.951172 L 27.787109,40.828125 40.123047,1.5351562 53.265625,66.978516 62.384766,41.632812 H 90.056641 V -0.20507812 Z"
       clip-path="url(#clipPath926)"
       inkscape:connector-curvature="0" />
  </g>
  <g
     inkscape:groupmode="layer"
     id="layer2"
     inkscape:label="lumc"
     style="display:inline"
     sodipodi:insensitive="true">
    <path
       style="fill:#999999;fill-opacity:1;stroke-width:0.02616188"
       d="m -0.02068956,17.467927 v -5.812134 l 5.95510376,0.0062 5.9550948,0.0062 0.0063,5.805619 0.0063,5.805618 H 5.9403751 -0.02140306 Z M 4.1497563,21.07793 c 0.03134,-0.04772 0.058435,-0.299519 0.04552,-0.423088 -0.00181,-0.01602 -0.035856,-0.04121 -0.075866,-0.056 -0.1141152,-0.042 -0.4222667,-0.145678 -0.6690391,-0.225151 -0.1238693,-0.03989 -0.2397456,-0.09103 -0.2575019,-0.11362 -0.04001,-0.05089 -0.041636,-0.1856 -0.00723,-0.569118 0.049313,-0.545459 0.077221,-0.862226 0.1185317,-1.344748 0.022489,-0.262837 0.052022,-0.605746 0.06566,-0.762026 0.013638,-0.156279 0.037391,-0.435256 0.052835,-0.619958 0.015444,-0.184693 0.046061,-0.533413 0.068099,-0.774943 0.022037,-0.24152 0.0429,-0.526317 0.046333,-0.632866 l 0.00632,-0.193735 0.047236,0.103326 c 0.026011,0.05679 0.05708,0.126571 0.069002,0.154985 0.011922,0.02844 0.034501,0.08074 0.050035,0.116243 0.087065,0.199107 0.1078923,0.248697 0.3899785,0.929928 0.1264795,0.305462 0.246682,0.592011 0.2671206,0.636776 0.020412,0.04473 0.03712,0.08849 0.03712,0.09715 0,0.0088 0.02267,0.06507 0.050306,0.12525 0.027637,0.06023 0.1244293,0.289675 0.2150621,0.509887 0.090624,0.220213 0.1931965,0.461733 0.2279323,0.536716 0.034772,0.07502 0.063131,0.147783 0.063131,0.161791 0,0.014 0.010928,0.0457 0.024295,0.07035 0.038204,0.07062 0.1082175,0.231853 0.1082175,0.249234 0,0.0088 0.022489,0.06498 0.050035,0.12525 0.027456,0.06023 0.099954,0.22775 0.1610257,0.372274 0.061054,0.144534 0.1299025,0.269838 0.1529604,0.278466 0.023031,0.0088 0.1704547,0.01409 0.3275335,0.01224 0.324544,-0.0035 0.3220422,-0.0026 0.4287696,-0.230575 0.1348158,-0.287993 0.2670304,-0.563131 0.4158452,-0.865353 0.083995,-0.17049 0.1974323,-0.402968 0.2521913,-0.516631 0.054732,-0.113655 0.151714,-0.314171 0.2154776,-0.445593 0.063764,-0.131415 0.1707436,-0.35227 0.2377496,-0.490798 0.1365859,-0.282393 0.3052885,-0.628622 0.47512,-0.975133 0.250656,-0.511384 0.3834305,-0.794904 0.3834305,-0.818757 0,-0.01382 0.014902,-0.02025 0.033146,-0.01444 0.038565,0.01242 0.056629,0.290599 0.1001522,1.543555 0.016076,0.461733 0.040462,1.112684 0.05428,1.44656 0.063222,1.529608 0.063402,1.55634 0.00903,1.706333 -0.077401,0.212191 -0.1731913,0.288257 -0.4824538,0.383166 -0.1456537,0.04473 -0.2712301,0.09753 -0.2790425,0.117396 -0.013638,0.0346 0.02294,0.354207 0.048139,0.421459 0.00948,0.02518 0.2848228,0.03231 1.2550409,0.03231 1.1192588,0 1.2465058,-0.0044 1.2789568,-0.04235 0.04751,-0.05582 0.06665,-0.410655 0.02475,-0.459804 -0.01707,-0.01999 -0.128648,-0.08409 -0.2480099,-0.142394 C 9.7425548,20.372114 9.691273,20.334781 9.5950134,20.206097 9.4736549,20.043865 9.4645329,19.982723 9.385,18.798288 9.343364,18.177581 9.3086824,17.699824 9.281181,17.364636 9.2665497,17.187049 9.2422545,16.870299 9.2271716,16.660758 9.2120887,16.451217 9.1854453,16.11411 9.1681045,15.911649 c -0.017341,-0.20247 -0.032153,-0.530869 -0.032785,-0.729765 -9.032e-4,-0.305092 0.00632,-0.375778 0.048229,-0.452056 0.1017057,-0.185873 0.1811392,-0.238438 0.5467051,-0.361734 0.245562,-0.08285 0.2466458,-0.08418 0.2254214,-0.28279 -0.00993,-0.09304 -0.028992,-0.180246 -0.042359,-0.193779 -0.014631,-0.01488 -0.3826899,-0.02245 -0.9298286,-0.01919 -0.7986886,0.0044 -0.9112594,0.01048 -0.9537985,0.04799 -0.026553,0.02342 -0.048229,0.05838 -0.048229,0.07766 0,0.01928 -0.011651,0.05529 -0.026011,0.07995 -0.033056,0.05706 -0.2919849,0.602876 -0.2919849,0.615485 0,0.0053 -0.04263,0.09979 -0.094634,0.210201 -0.052022,0.110423 -0.110629,0.235639 -0.1301645,0.278263 -0.019508,0.04262 -0.070808,0.153048 -0.1138261,0.245395 -0.043081,0.09235 -0.1048305,0.226023 -0.1372542,0.297062 -0.032424,0.07106 -0.086343,0.187282 -0.1197148,0.258311 -0.033417,0.07106 -0.087517,0.187282 -0.1202928,0.258321 -0.032695,0.07106 -0.092141,0.198895 -0.1319978,0.284145 -0.03983,0.08523 -0.099005,0.213106 -0.1314289,0.284145 -0.032424,0.07106 -0.086253,0.187282 -0.1197148,0.258311 -0.033417,0.07106 -0.087517,0.187282 -0.1202928,0.258321 -0.032695,0.07106 -0.09476,0.204715 -0.1378233,0.297062 -0.043081,0.09235 -0.09514,0.205675 -0.115732,0.251857 -0.020592,0.04614 -0.05428,0.121729 -0.074872,0.167902 -0.1398283,0.313624 -0.2051454,0.432676 -0.2374065,0.432676 -0.020592,0 -0.063041,-0.06604 -0.095627,-0.148531 -0.032243,-0.08171 -0.069002,-0.171776 -0.081737,-0.200199 C 5.6883012,18.098213 5.5875259,17.84832 5.4771047,17.57128 5.3666835,17.29424 5.2663506,17.04432 5.2541398,17.015907 5.2419471,16.987467 5.1995885,16.882872 5.1600298,16.78342 5.1204711,16.683968 5.0779319,16.579356 5.0654592,16.550934 5.0529955,16.522494 4.9766779,16.333636 4.8958174,16.131174 4.8149839,15.928722 4.6826609,15.597435 4.6018184,15.394982 4.520985,15.192529 4.444857,15.003636 4.4326824,14.975223 c -0.012193,-0.02844 -0.054461,-0.133035 -0.094047,-0.232487 -0.085349,-0.214559 -0.1111257,-0.27755 -0.1454551,-0.355183 -0.014089,-0.03196 -0.062499,-0.151111 -0.107522,-0.264775 -0.044978,-0.113654 -0.099159,-0.219648 -0.120338,-0.23555 -0.040642,-0.03046 -1.8957204,-0.02703 -1.9465687,0.0035 -0.014089,0.0088 -0.02556,0.106302 -0.02556,0.217403 0,0.196633 0.00181,0.2027 0.072886,0.228798 0.1497993,0.05512 0.4458936,0.15679 0.5035789,0.172947 0.091843,0.02571 0.2130119,0.136318 0.264384,0.241318 0.053648,0.10963 0.056448,0.371208 0.00903,0.790272 -0.016347,0.143125 -0.041184,0.370663 -0.055184,0.505634 -0.052293,0.503688 -0.1056344,1.029424 -0.1337048,1.3174 -0.015896,0.163385 -0.045158,0.448181 -0.065028,0.632875 -0.019779,0.184693 -0.049132,0.469481 -0.065209,0.632866 -0.015986,0.163385 -0.04001,0.39006 -0.053377,0.503714 -0.013277,0.113664 -0.03143,0.291251 -0.040281,0.394639 -0.031521,0.367775 -0.196484,0.703975 -0.4246782,0.865423 -0.067286,0.04755 -0.2000153,0.125013 -0.2949743,0.17204 l -0.1726494,0.0855 0.00921,0.217289 c 0.00632,0.157592 0.020141,0.224008 0.048952,0.241767 0.023573,0.01453 0.5440046,0.02465 1.2778458,0.02492 l 1.2381065,3.88e-4 0.038204,-0.05811 z m 13.5424917,0.223778 c -0.616511,-0.08153 -0.704542,-0.09932 -1.097203,-0.221982 -1.036827,-0.323891 -1.697241,-0.962806 -2.024431,-1.958534 -0.164051,-0.499259 -0.21079,-0.840777 -0.212118,-1.549886 -0.0018,-0.73665 0.03513,-0.977184 0.238996,-1.573263 0.395028,-1.155159 1.325163,-1.976161 2.560777,-2.260297 0.408412,-0.09391 0.542144,-0.105739 1.196389,-0.105739 0.906355,0 1.34515,0.07308 1.900381,0.316495 l 0.151605,0.06648 0.0072,0.77327 c 0.0036,0.425289 3.97e-4,0.78418 -0.0081,0.797528 -0.0081,0.01329 -0.11864,0.03135 -0.244821,0.04006 l -0.229405,0.01576 -0.06738,-0.152343 c -0.107793,-0.243616 -0.123219,-0.272311 -0.243891,-0.453887 -0.220671,-0.332053 -0.564633,-0.562717 -0.961087,-0.644524 -0.320814,-0.06621 -0.914908,-0.03223 -1.364568,0.07801 -0.467714,0.114685 -0.987695,0.460456 -1.290969,0.858476 -0.15007,0.196958 -0.332971,0.57757 -0.41421,0.861997 -0.200702,0.702663 -0.219506,1.644434 -0.04516,2.263969 0.0214,0.07608 0.0466,0.167418 0.056,0.202937 0.01553,0.05855 0.03721,0.113285 0.123092,0.309979 0.231789,0.530993 0.689785,0.986086 1.239145,1.231322 0.130634,0.05829 0.207675,0.08514 0.464607,0.161888 0.287858,0.08594 0.547518,0.114254 1.046608,0.113981 0.625597,-2.91e-4 0.767132,-0.02642 1.483813,-0.273166 0.09473,-0.03258 0.187651,-0.06885 0.20651,-0.08057 0.03613,-0.02245 0.111441,0.02237 0.111441,0.06639 0,0.01382 0.01626,0.06181 0.03604,0.10662 0.01978,0.04473 0.06783,0.156702 0.10661,0.248731 l 0.07054,0.167339 -0.06024,0.04473 c -0.111596,0.08285 -0.518779,0.267997 -0.78889,0.358759 -0.417218,0.140192 -0.70727,0.182157 -1.324828,0.191684 -0.29875,0.0044 -0.578948,0.0035 -0.622671,-0.0018 z m -5.771833,-9.663023 c -0.0098,-0.0095 -0.0177,-2.6249109 -0.0177,-5.8120808 V 0.03174733 h 5.961715 5.961724 V 5.843825 11.655899 h -5.944058 c -3.26923,0 -5.952006,-0.0079 -5.961724,-0.01726 z m 6.725704,-2.0478685 c 0.329548,-0.077924 0.387558,-0.094442 0.537086,-0.1530215 0.519574,-0.2035709 0.963634,-0.541761 1.24246,-0.9462434 0.124122,-0.1800529 0.231473,-0.3653799 0.254386,-0.4391391 0.009,-0.02844 0.03595,-0.1039691 0.06024,-0.167902 0.0634,-0.1668189 0.108335,-0.3417472 0.15595,-0.6071634 0.03549,-0.1980361 0.04173,-0.5318844 0.04191,-2.2601291 2.08e-4,-1.9642787 0.0018,-2.0303529 0.05184,-2.1103179 0.069,-0.1103782 0.132404,-0.1465174 0.398613,-0.2273338 0.403932,-0.1226241 0.370957,-0.094969 0.370957,-0.3110936 0,-0.1036688 -0.0072,-0.2068754 -0.01608,-0.2293492 -0.01436,-0.036549 -0.164963,-0.040864 -1.427979,-0.040864 -1.263025,0 -1.413592,0.00431 -1.427979,0.040864 -0.02881,0.073178 -0.01689,0.3357009 0.01707,0.3769055 0.01824,0.022092 0.176208,0.084589 0.351079,0.1388825 0.369333,0.1146636 0.492308,0.1816598 0.578858,0.3153623 0.113284,0.1749812 0.123301,0.3379911 0.123301,2.0054728 0,2.2522513 -0.03215,2.5701433 -0.314881,3.1102305 -0.200277,0.3826199 -0.561706,0.6475967 -1.049687,0.7695628 -0.260158,0.064981 -0.930741,0.065245 -1.192343,3.963e-4 C 16.795412,8.7058029 16.336269,8.315866 16.145882,7.7900684 16.008013,7.4093134 16.010669,7.4620463 16.010244,5.0931062 l -3.97e-4,-2.2102146 0.07288,-0.065615 c 0.07388,-0.066565 0.143658,-0.088637 0.523313,-0.1656153 0.116581,-0.023641 0.227328,-0.047195 0.246095,-0.052346 0.02538,-0.00696 0.03215,-0.070484 0.02646,-0.2487413 l -0.0072,-0.2393771 -1.449637,-0.00669 c -1.66992,-0.00766 -1.513221,-0.035933 -1.499303,0.2702526 l 0.0081,0.1721918 0.291461,0.09743 c 0.160303,0.053587 0.308215,0.097935 0.328698,0.098553 0.0672,0.00203 0.213789,0.1311236 0.274337,0.241559 l 0.05934,0.1082879 0.01553,2.2344204 0.01553,2.2344213 0.07009,0.2583132 c 0.0765,0.2815917 0.07948,0.2898244 0.190234,0.5166228 0.169371,0.346863 0.456641,0.6606014 0.797108,0.8705471 0.189792,0.1170356 0.224699,0.134355 0.450572,0.223567 0.220671,0.087169 0.630266,0.1788465 0.938237,0.2100161 0.352037,0.03566 1.035653,0.00907 1.285089,-0.049836 z M 3.0421845,9.5158863 c -0.00723,-0.012063 -0.021766,-0.1140068 -0.03134,-0.2266488 -0.018966,-0.221445 -0.00723,-0.2474548 0.1215843,-0.2756924 0.1746816,-0.038213 0.5302855,-0.1391713 0.5467503,-0.155214 0.010206,-0.00995 0.035223,-0.01805 0.055635,-0.01805 0.074601,0 0.2193431,-0.1377182 0.2833054,-0.2695286 C 4.0825155,8.4379645 4.0843218,8.417132 4.1134128,7.4302657 4.1297601,6.8773928 4.1392434,5.6927203 4.1345469,4.7976608 4.1264184,3.2897129 4.1224445,3.1609428 4.0771055,3.0430821 4.0160514,2.8845865 3.9350193,2.7754384 3.8442239,2.7294606 3.805749,2.7099928 3.6627054,2.6584485 3.526273,2.6149238 3.0907929,2.4759901 3.1291956,2.5089234 3.1380466,2.2819938 l 0.00723,-0.196636 1.4229396,-0.00669 1.4229486,-0.00669 0.016167,0.084175 c 0.00903,0.046296 0.012464,0.1468756 0.00813,0.2235088 l -0.00813,0.1393325 -0.1324856,0.034304 c -0.072885,0.018869 -0.2159472,0.053261 -0.3179599,0.076427 -0.2576013,0.0585 -0.3626667,0.1132645 -0.4189701,0.2183967 -0.0457,0.085408 -0.047236,0.2079285 -0.031159,2.5823963 0.0093,1.3710042 0.024927,2.6961583 0.034772,2.9447843 l 0.017973,0.4520468 0.291461,-0.00352 C 6.9987516,8.8066548 7.4733115,8.7831455 7.658524,8.7145462 8.0312339,8.5765019 8.2888623,8.3249527 8.5176887,7.8756704 8.5775686,7.75808 8.6042121,7.7288387 8.6389659,7.7423543 c 0.024476,0.00951 0.1213496,0.028176 0.2151976,0.041383 0.093839,0.013296 0.1753409,0.028704 0.1811211,0.034339 0.00542,0.00528 -0.00181,0.095455 -0.01716,0.1996087 -0.015173,0.104154 -0.04001,0.2939891 -0.055093,0.4218549 -0.015173,0.1278658 -0.045971,0.3777858 -0.06846,0.5553732 C 8.871992,9.1725012 8.8474259,9.3672143 8.8398393,9.42759 L 8.8261112,9.5373704 H 5.941179 c -1.5867199,0 -2.8911731,-0.00986 -2.8987868,-0.021836 z"
       id="path951"
       inkscape:connector-curvature="0"
       clip-path="url(#clipPath960)" />
  </g>
  <g
     inkscape:groupmode="layer"
     id="layer3"
     inkscape:label="website"
     style="display:none"
     sodipodi:insensitive="true">
    <path
       style="opacity:1;fill:#999999;fill-opacity:1;stroke:none;stroke-width:0.92220473;stroke-miterlimit:4;stroke-dasharray:none;stroke-opacity:0.5071225"
       d="M 0.14453125,0.04101562 V 88 H 90.138672 V 0.04101562 Z M 7.8710938,14.351562 H 15.982422 L 28.466797,64.53125 40.912109,14.351562 h 9.027344 L 62.423828,64.53125 74.869141,14.351562 h 8.152343 L 68.111328,73.716797 H 58.009766 L 45.486328,22.185547 32.841797,73.716797 H 22.742188 Z"
       transform="scale(0.26458333)"
       id="rect896"
       inkscape:connector-curvature="0"
       clip-path="url(#clipPath935)" />
    <g
       aria-label="W"
       style="font-style:normal;font-weight:normal;font-size:21.54585075px;line-height:1.25;font-family:sans-serif;letter-spacing:0px;word-spacing:0px;fill:#000000;fill-opacity:1;stroke:none;stroke-width:0.53864622"
       id="text900" />
  </g>
  <g
     inkscape:groupmode="layer"
     id="layer4"
     inkscape:label="mask"
     style="display:none"
     sodipodi:insensitive="true">
    <path
       style="opacity:1;fill:#000000;fill-opacity:1;stroke:none;stroke-width:0.92220473;stroke-miterlimit:4;stroke-dasharray:none;stroke-opacity:0.5071225"
       d="M 7.2695312,-0.10351562 V 0.19726562 A 6.9058561,6.9058561 0 0 0 7.0507812,0.1875 6.9058561,6.9058561 0 0 0 0.1484375,7.0195312 H -0.14453125 V 81.166016 H 0.14648438 A 6.9058561,6.9058561 0 0 0 7.0507812,88 a 6.9058561,6.9058561 0 0 0 0.21875,-0.0078 v 0.298828 H 82.433594 V 87.949219 A 6.9058561,6.9058561 0 0 0 83.234375,88 a 6.9058561,6.9058561 0 0 0 6.904297,-6.90625 6.9058561,6.9058561 0 0 0 -0.144531,-1.375 V 8.4960938 A 6.9058561,6.9058561 0 0 0 90.138672,7.0917969 6.9058561,6.9058561 0 0 0 83.234375,0.1875 6.9058561,6.9058561 0 0 0 82.433594,0.2421875 v -0.34570312 z"
       id="path907"
       inkscape:connector-curvature="0"
       transform="scale(0.26458333)" />
  </g>
</svg>
